<svg width="56" height="56" viewBox="0 0 56 56" fill="none" xmlns="http://www.w3.org/2000/svg">
<path d="M42 45.5C42 49.3675 38.08 52.5 33.25 52.5C28.42 52.5 24.5 49.3675 24.5 45.5C24.5 41.6325 28.42 38.5 33.25 38.5C38.08 38.5 42 41.6325 42 45.5Z" fill="#DB2CBA"/>
<path fill-rule="evenodd" clip-rule="evenodd" d="M42 10.5V45.5H38.5V10.5H42Z" fill="#DB2CBA"/>
<path d="M38.5 9.87001C38.5005 9.06119 38.7811 8.2775 39.2941 7.65219C39.8071 7.02687 40.5209 6.59854 41.314 6.44001L51.814 4.34001C52.3216 4.23856 52.8453 4.25095 53.3476 4.3763C53.8498 4.50164 54.3179 4.73682 54.7183 5.06489C55.1187 5.39296 55.4413 5.80575 55.6629 6.27352C55.8846 6.74129 55.9997 7.25239 56 7.77001V14L38.5 17.5V9.87001Z" fill="#DB2CBA"/>
<path fill-rule="evenodd" clip-rule="evenodd" d="M0 40.25C0 39.7859 0.184374 39.3407 0.512563 39.0126C0.840752 38.6844 1.28587 38.5 1.75 38.5H14C14.4641 38.5 14.9092 38.6844 15.2374 39.0126C15.5656 39.3407 15.75 39.7859 15.75 40.25C15.75 40.7141 15.5656 41.1593 15.2374 41.4874C14.9092 41.8156 14.4641 42 14 42H1.75C1.28587 42 0.840752 41.8156 0.512563 41.4874C0.184374 41.1593 0 40.7141 0 40.25ZM0 26.25C0 25.7859 0.184374 25.3408 0.512563 25.0126C0.840752 24.6844 1.28587 24.5 1.75 24.5H28C28.4641 24.5 28.9093 24.6844 29.2374 25.0126C29.5656 25.3408 29.75 25.7859 29.75 26.25C29.75 26.7141 29.5656 27.1592 29.2374 27.4874C28.9093 27.8156 28.4641 28 28 28H1.75C1.28587 28 0.840752 27.8156 0.512563 27.4874C0.184374 27.1592 0 26.7141 0 26.25ZM0 12.25C0 11.7859 0.184374 11.3408 0.512563 11.0126C0.840752 10.6844 1.28587 10.5 1.75 10.5H28C28.4641 10.5 28.9093 10.6844 29.2374 11.0126C29.5656 11.3408 29.75 11.7859 29.75 12.25C29.75 12.7141 29.5656 13.1592 29.2374 13.4874C28.9093 13.8156 28.4641 14 28 14H1.75C1.28587 14 0.840752 13.8156 0.512563 13.4874C0.184374 13.1592 0 12.7141 0 12.25Z" fill="#DB2CBA"/>
</svg>
